<?xml version="1.0" encoding="UTF-8"?>
<svg version="1.1" xmlns="http://www.w3.org/2000/svg" width="979" height="979">
<path d="M0 0 C323.07 0 646.14 0 979 0 C979 323.07 979 646.14 979 979 C655.93 979 332.86 979 0 979 C0 655.93 0 332.86 0 0 Z " fill="#FEFEFE" transform="translate(0,0)"/>
<path d="M0 0 C-1.99274383 6.29955086 -4.3260408 12.37064196 -6.9375 18.4375 C-7.6530137 20.11690223 -8.3678655 21.79658662 -9.08203125 23.4765625 C-9.41799316 24.26579102 -9.75395508 25.05501953 -10.10009766 25.86816406 C-11.1421381 28.33672 -12.14345984 30.81930517 -13.125 33.3125 C-15.15995501 38.47192133 -17.37584059 43.55139122 -19.5703125 48.64453125 C-20.70780448 51.31421872 -21.81041665 53.98835726 -22.875 56.6875 C-25.15257998 62.45800725 -27.58406336 68.16331751 -30.00732422 73.8737793 C-31.65922059 77.77600867 -33.28183298 81.68582564 -34.84375 85.625 C-37.90253423 93.31377988 -41.15124138 100.92485165 -44.36376953 108.55029297 C-48.23101602 117.7086535 -48.23101602 117.7086535 -51.96484375 126.921875 C-54.55277873 133.44621654 -57.31661468 139.89752033 -60.05197144 146.36099243 C-66.58851189 161.81413762 -73.04095972 177.30091835 -79.4375 192.8125 C-79.83589081 193.77856171 -80.23428162 194.74462341 -80.64474487 195.73995972 C-82.25364183 199.64175285 -83.86240355 203.54360168 -85.47087097 207.4455719 C-89.50919677 217.23996363 -93.56525773 227.02696969 -97.625 236.8125 C-98.3254401 238.50105768 -99.02587955 240.18961562 -99.72631836 241.87817383 C-101.11983096 245.23735592 -102.51349418 248.59647549 -103.90722656 251.95556641 C-107.08484962 259.61442896 -110.26034346 267.27417437 -113.43603516 274.93383789 C-114.49765032 277.49433284 -115.55935662 280.05478999 -116.62109375 282.61523438 C-119.82778262 290.34844339 -123.03411052 298.08180125 -126.23883057 305.81582642 C-133.61457359 323.61580583 -140.9985865 341.412211 -148.41552734 359.19506836 C-153.50308623 371.39355466 -158.56726274 383.60162253 -163.625 395.8125 C-170.70098686 412.89568727 -177.82889007 429.95652938 -185 447 C-185.66 447 -186.32 447 -187 447 C-187.30478271 446.29544678 -187.60956543 445.59089355 -187.92358398 444.86499023 C-194.64109725 429.34042893 -201.37155294 413.82146597 -208.125 398.3125 C-208.47728668 397.50348236 -208.82957336 396.69446472 -209.1925354 395.8609314 C-215.34958462 381.72850732 -221.57966051 367.62898693 -227.82803345 353.53674316 C-232.04531661 344.02169364 -236.23736311 334.49769598 -240.32421875 324.92578125 C-240.6656189 324.12621002 -241.00701904 323.32663879 -241.35876465 322.50283813 C-242.94819119 318.77533664 -244.53133203 315.04530077 -246.10595703 311.31152344 C-248.60998201 305.39763914 -251.17042923 299.55761096 -254.10546875 293.83984375 C-256.07877844 289.97460127 -257.77954939 286.12815033 -259.296875 282.0625 C-262.85530654 272.52794659 -267.10578222 263.29088606 -271.25 254 C-274.09817693 247.60264355 -276.9365191 241.20110202 -279.76147461 234.79345703 C-281.04562622 231.89709143 -282.3478781 229.0092425 -283.65039062 226.12109375 C-284.49149678 224.22683384 -285.33201235 222.33231157 -286.171875 220.4375 C-286.57182678 219.56287109 -286.97177856 218.68824219 -287.3838501 217.78710938 C-290.03721289 211.74167616 -290.03721289 211.74167616 -289.85571289 208.12426758 C-288.49751709 204.75260947 -286.64050762 201.73660614 -284.6875 198.6875 C-284.2445459 197.98818359 -283.8015918 197.28886719 -283.34521484 196.56835938 C-278.76530513 189.45078142 -273.70368206 182.73031765 -268.54541016 176.02636719 C-266.97124394 173.96229458 -265.42545407 171.87965677 -263.88671875 169.7890625 C-258.92935455 163.06328183 -253.9450399 156.52004269 -248.23046875 150.40625 C-246.35251126 148.38029235 -244.53306002 146.3240481 -242.72265625 144.23828125 C-238.99400108 139.96259737 -235.14423959 135.81231957 -231.25 131.6875 C-230.55261719 130.94838379 -229.85523438 130.20926758 -229.13671875 129.44775391 C-221.07681465 120.93327418 -212.94243908 112.59643181 -204 105 C-203.00742188 104.12988281 -202.01484375 103.25976562 -200.9921875 102.36328125 C-192.59554295 95.02539728 -183.87665457 88.20531217 -174.97070312 81.49902344 C-173.20754705 80.15787151 -171.46612902 78.79536816 -169.734375 77.4140625 C-153.76114006 64.75834559 -136.14118537 54.53053454 -118.48779297 44.42626953 C-116.9568809 43.54858667 -115.42911611 42.66535311 -113.90673828 41.77294922 C-110.83484195 39.97847512 -107.85207648 38.44023005 -104.5 37.25 C-99.23655288 35.22683732 -94.36976425 32.62410141 -89.44140625 29.90527344 C-78.67736353 24 -78.67736353 24 -73 24 C-73 23.34 -73 22.68 -73 22 C-72.443125 21.81824219 -71.88625 21.63648437 -71.3125 21.44921875 C-70.549375 21.19785156 -69.78625 20.94648437 -69 20.6875 C-67.88625 20.32205078 -67.88625 20.32205078 -66.75 19.94921875 C-64.62794327 19.21674746 -62.52120454 18.43980128 -60.421875 17.64453125 C-55.07672968 15.62883036 -49.66612164 13.81446896 -44.25 12 C-43.24195313 11.65710937 -42.23390625 11.31421875 -41.1953125 10.9609375 C-35.02040625 8.89210702 -28.85015753 7.14047681 -22.50561523 5.66821289 C-19.43188042 4.84849037 -16.82590579 3.44435185 -14 2 C-9.36931123 0.65560649 -4.84498178 -0.31257947 0 0 Z " fill="#FF80AD" transform="translate(380,35)"/>
<path d="M0 0 C3.41752953 0.72549776 6.42495662 1.98099737 9.61328125 3.3984375 C10.69673828 3.87796875 11.78019531 4.3575 12.89648438 4.8515625 C14.02376953 5.35429688 15.15105469 5.85703125 16.3125 6.375 C18.53764499 7.36223937 20.76290241 8.34922537 22.98828125 9.3359375 C24.03830322 9.80185303 25.0883252 10.26776855 26.17016602 10.74780273 C31.71082043 13.19953395 37.27476028 15.52748588 42.9375 17.6875 C44.08089844 18.12449219 45.22429687 18.56148437 46.40234375 19.01171875 C47.25957031 19.33785156 48.11679688 19.66398438 49 20 C49 20.66 49 21.32 49 22 C49.6492041 22.08958984 50.2984082 22.17917969 50.96728516 22.27148438 C55.05673719 23.25384832 58.69728833 24.93184397 62.5234375 26.65625 C63.36592545 27.03089386 64.20841339 27.40553772 65.07643127 27.79153442 C66.89574586 28.60113486 68.71405633 29.41299474 70.53146362 30.22686768 C74.37220245 31.94647597 78.21808211 33.65443282 82.06376648 35.36294556 C84.0509133 36.24585136 86.03781867 37.12930076 88.02449036 38.01327515 C97.45989919 42.21052567 106.91116757 46.37091735 116.37457275 50.50463867 C118.0779137 51.24923934 119.78067716 51.99516252 121.48284912 52.74243164 C123.85053971 53.78182874 126.21993434 54.81723648 128.58984375 55.8515625 C129.28582169 56.15796661 129.98179962 56.46437073 130.6988678 56.78005981 C133.76038916 58.11091849 136.71550359 59.35197068 140 60 C140 60.66 140 61.32 140 62 C140.65871094 62.0928125 141.31742188 62.185625 141.99609375 62.28125 C145.92336348 63.22093483 149.39836051 64.8274597 153.0625 66.5 C154.468714 67.13837245 155.87622974 67.77388674 157.28515625 68.40625 C157.90269775 68.68791016 158.52023926 68.96957031 159.15649414 69.25976562 C161.08105073 70.0325448 162.97940534 70.54235945 165 71 C165 71.66 165 72.32 165 73 C165.70511719 73.12246094 166.41023437 73.24492188 167.13671875 73.37109375 C170.15503183 74.03405201 172.91889442 74.98175575 175.8125 76.0625 C176.78832031 76.42472656 177.76414063 76.78695312 178.76953125 77.16015625 C179.87361328 77.57587891 179.87361328 77.57587891 181 78 C181 78.66 181 79.32 181 80 C181.66257813 80.09539062 182.32515625 80.19078125 183.0078125 80.2890625 C186.86234079 81.20489037 190.27432773 82.74628469 193.875 84.375 C195.24729145 84.9872132 196.61968651 85.5991942 197.9921875 86.2109375 C198.66467529 86.51185303 199.33716309 86.81276855 200.0300293 87.12280273 C205.27922146 89.46018623 210.56897471 91.639712 215.9375 93.6875 C217.08089844 94.12449219 218.22429687 94.56148437 219.40234375 95.01171875 C220.25957031 95.33785156 221.11679688 95.66398438 222 96 C222 96.66 222 97.32 222 98 C223.05380859 98.18175781 223.05380859 98.18175781 224.12890625 98.3671875 C232.25845911 100.15900732 239.8804768 103.83338282 247.25 107.625 C252.4311636 110.28512762 257.41604057 112.36332224 263 114 C263 114.66 263 115.32 263 116 C264.2375 116.20625 265.475 116.4125 266.75 116.625 C271.94497894 117.76396226 276.3293638 119.98615345 281.0078125 122.46484375 C283.66110753 123.82612958 286.33714231 125.03483564 289.08544922 126.18969727 C293.52930868 128.0704891 297.92174502 130.07245667 302.328125 132.0390625 C309.14204097 135.07519513 315.96556118 138.02810066 322.9375 140.6875 C324.08089844 141.12449219 325.22429687 141.56148437 326.40234375 142.01171875 C327.25957031 142.33785156 328.11679687 142.66398438 329 143 C329 143.66 329 144.32 329 145 C330.2375 145.20625 331.475 145.4125 332.75 145.625 C338.06019165 146.77792592 342.5325086 149.11084446 347.30078125 151.66015625 C349.58692701 152.79495798 351.51092635 153.52110459 354 154 C354 154.66 354 155.32 354 156 C355.05767578 156.18369141 355.05767578 156.18369141 356.13671875 156.37109375 C359.15503183 157.03405201 361.91889442 157.98175575 364.8125 159.0625 C365.78832031 159.42472656 366.76414062 159.78695312 367.76953125 160.16015625 C368.50558594 160.43730469 369.24164063 160.71445312 370 161 C370 161.66 370 162.32 370 163 C371.2375 163.20625 372.475 163.4125 373.75 163.625 C379.06019165 164.77792592 383.5325086 167.11084446 388.30078125 169.66015625 C390.58692701 170.79495798 392.51092635 171.52110459 395 172 C395 172.66 395 173.32 395 174 C396.05767578 174.18369141 396.05767578 174.18369141 397.13671875 174.37109375 C400.15503183 175.03405201 402.91889442 175.98175575 405.8125 177.0625 C406.78832031 177.42472656 407.76414062 177.78695312 408.76953125 178.16015625 C409.50558594 178.43730469 410.24164063 178.71445312 411 179 C411 179.66 411 180.32 411 181 C411.64066406 181.09796875 412.28132813 181.1959375 412.94140625 181.296875 C418.83921867 182.31646701 422.94635504 183.82908552 428 187 C428.94875 187.37125 429.8975 187.7425 430.875 188.125 C433 189 433 189 434 191 C432.35064453 191.67095703 432.35064453 191.67095703 430.66796875 192.35546875 C421.02033405 196.27971335 421.02033405 196.27971335 411.5 200.5 C405.57798882 203.24016956 399.54452818 205.69246466 393.50390625 208.15625 C387.98972361 210.40653924 382.49623617 212.70631907 377 215 C375.08212475 215.79840173 373.16415754 216.59658258 371.24609375 217.39453125 C365.16265602 219.9263187 359.08083692 222.46197259 353 225 C351.72382812 225.53246338 351.72382812 225.53246338 350.421875 226.07568359 C339.87531727 230.48085324 329.37568528 234.98477492 318.91381836 239.58789062 C313.65743122 241.89007976 308.38278953 244.01286814 303 246 C301.53389442 246.62798985 300.07372768 247.27039812 298.625 247.9375 C295.44499584 249.37451219 292.24592258 250.71871477 289 252 C280.20016914 255.40947474 280.20016914 255.40947474 272 260 C270.329375 260.4640625 270.329375 260.4640625 268.625 260.9375 C265.07356807 261.81275463 265.07356807 261.81275463 262.5 263.5 C260.08330742 264.95001555 257.92176224 265.63296178 255.21484375 266.34375 C247.81868578 268.53520421 240.60550472 271.51365715 233.77734375 275.09375 C231.94396274 276.02857285 230.08734884 276.83504206 228.1875 277.625 C224.92962356 278.91708792 224.92962356 278.91708792 222 281 C220.34581584 281.46317156 218.69093618 281.92413568 217.03125 282.3671875 C212.28289396 283.84648303 207.774446 286.13341009 203.3125 288.3125 C200.05078567 289.28219885 198.3175826 288.89715985 195 288 C191.95838877 286.21988306 189.18204698 284.12600173 186.375 282 C185.57811768 281.40912598 184.78123535 280.81825195 183.96020508 280.20947266 C182.36365093 279.02362686 180.77055207 277.83311318 179.18115234 276.63769531 C177.33517966 275.25166613 175.47946683 273.88201602 173.61328125 272.5234375 C163.36173424 264.99559924 153.76668768 256.70708782 144.3671875 248.1484375 C142.84295314 246.76505648 141.30725494 245.39414979 139.7578125 244.0390625 C134.06971407 239.04043055 128.67558227 233.78152945 123.3125 228.4375 C122.59956787 227.72916016 121.88663574 227.02082031 121.15209961 226.29101562 C117.11358971 222.24077542 113.25500987 218.09018517 109.52124023 213.75756836 C107.69093263 211.64291831 105.78367674 209.60640687 103.875 207.5625 C98.55539208 201.67910458 93.84020725 195.36058248 89.06640625 189.03515625 C86.73310391 185.9465653 84.33693113 182.92518233 81.875 179.9375 C76.49310645 173.263952 71.76264361 166.12113564 67 159 C66.61199219 158.42266113 66.22398438 157.84532227 65.82421875 157.25048828 C34.95786914 111.10093287 8.8477125 55.33508977 0 0 Z " fill="#FF80AD" transform="translate(31,585)"/>
<path d="M0 0 C1.32 0 2.64 0 4 0 C4 0.66 4 1.32 4 2 C5.14210938 2.35707031 6.28421875 2.71414063 7.4609375 3.08203125 C14.98314869 5.59382367 22.28711088 8.68952569 29.625 11.6875 C31.2714943 12.3579229 32.91806164 13.02816647 34.56469727 13.69824219 C39.71168806 15.79421096 44.85605326 17.89657376 50 20 C50.80101135 20.32736145 51.60202271 20.6547229 52.42730713 20.99200439 C73.06303041 29.4256609 93.67052272 37.92704649 114.27047729 46.44763184 C129.32950409 52.67490293 144.40883688 58.85105422 159.5 65 C176.22472525 71.81470098 192.93367419 78.66637154 209.625 85.5625 C210.61266357 85.97040771 211.60032715 86.37831543 212.61791992 86.79858398 C215.40441309 87.94968471 218.19057437 89.10158379 220.9765625 90.25390625 C221.79093781 90.59047745 222.60531311 90.92704865 223.44436646 91.27381897 C224.94277153 91.89420373 226.43884604 92.52026073 227.93203735 93.15309143 C229.28984774 93.70916591 230.66356728 94.22813797 232.05111694 94.70518494 C235.16079913 95.82584305 236.72570325 96.45768687 238.24755859 99.46655273 C238.42109863 100.46630127 238.59463867 101.4660498 238.7734375 102.49609375 C238.98452148 103.65866699 239.19560547 104.82124023 239.41308594 106.01904297 C239.61294164 107.34539998 239.80835148 108.67243227 240 110 C240.1636908 111.07329559 240.1636908 111.07329559 240.33068848 112.16827393 C241.05502798 116.95658963 241.69960101 121.75252163 242.30761719 126.55688477 C242.62506126 129.06298363 242.95235808 131.56764597 243.28125 134.07226562 C243.49276368 135.70565466 243.70371999 137.33911598 243.9140625 138.97265625 C244.00885895 139.70114273 244.1036554 140.42962921 244.20132446 141.18019104 C245.50577237 151.54590616 246.1681506 161.86691603 246.2734375 172.3125 C246.28596558 173.46376373 246.29849365 174.61502747 246.31140137 175.80117798 C246.56590318 204.89897466 245.4752888 233.23564795 241 262 C240.88636108 262.74088867 240.77272217 263.48177734 240.65563965 264.24511719 C231.05459709 326.38877994 207.93590636 388.59614045 173 441 C172.34 441 171.68 441 171 441 C170.61328125 439.96101563 170.2265625 438.92203125 169.828125 437.8515625 C166.60459576 429.21013633 163.29113451 420.61891349 159.80859375 412.078125 C155.70163935 401.92189589 151.82194451 391.68129027 147.95874023 381.43041992 C145.37713388 374.59005835 142.74877874 367.77493113 140 361 C136.36220683 351.9954625 132.82593846 342.96134601 129.3815918 333.88110352 C122.69605548 316.27539135 115.85911416 298.72621559 109 281.1875 C108.65074463 280.29434082 108.30148926 279.40118164 107.94165039 278.48095703 C106.35272559 274.42539356 104.75187659 270.37516962 103.12792969 266.33349609 C101.05391413 261.15165341 99.02860848 255.95189762 97.015625 250.74609375 C96.24609784 248.759113 95.47656641 246.7721339 94.70703125 244.78515625 C94.30693848 243.75148926 93.9068457 242.71782227 93.49462891 241.65283203 C87.01982849 224.92605262 80.52856277 208.20586858 74 191.5 C67.73314444 175.4624173 61.50206794 159.41114931 55.28173828 143.35546875 C49.55418296 128.5728993 43.80604474 113.79857646 38.03579712 99.03262329 C31.98271479 83.54116035 25.96822403 68.03486419 19.96295166 52.52481079 C14.20634869 37.65635686 14.20634869 37.65635686 8.38671875 22.8125 C8.12136826 22.13967484 7.85601776 21.46684967 7.58262634 20.77363586 C6.4031616 17.78519508 5.22007372 14.79825512 4.03198242 11.81323242 C3.6372876 10.81654541 3.24259277 9.8198584 2.8359375 8.79296875 C2.50126465 7.9527417 2.1665918 7.11251465 1.82177734 6.24682617 C1.06506756 4.17790159 0.48635804 2.14669438 0 0 Z " fill="#FFD164" transform="translate(703,297)"/>
<path d="M0 0 C1.13721937 -0.01154019 1.13721937 -0.01154019 2.29741287 -0.02331352 C8.00551694 -0.07875461 13.7135391 -0.1103183 19.421875 -0.12890625 C20.25939552 -0.13176888 21.09691605 -0.1346315 21.95981598 -0.13758087 C45.82421868 -0.20318497 68.98587017 0.23337389 92.37841797 5.46191406 C96.25782114 6.32777648 100.14600565 7.09237685 104.05078125 7.83203125 C111.12239695 9.19471308 118.15066363 10.70775756 125.171875 12.30859375 C126.13416016 12.52418945 127.09644531 12.73978516 128.08789062 12.96191406 C159.42052525 20.10891656 191.25543391 32.05154011 219.6328125 47.06640625 C221.84639514 48.14935899 223.7646317 48.84083557 226.171875 49.30859375 C226.171875 49.96859375 226.171875 50.62859375 226.171875 51.30859375 C226.98269531 51.54191406 227.79351563 51.77523437 228.62890625 52.015625 C232.97712076 53.60245962 236.83879522 55.72071767 240.859375 57.99609375 C242.04551392 58.66330444 242.04551392 58.66330444 243.25561523 59.34399414 C260.83601709 69.30102003 260.83601709 69.30102003 262.171875 73.30859375 C261.34945313 73.623125 260.52703125 73.93765625 259.6796875 74.26171875 C252.82156006 76.89093158 245.98359121 79.56157377 239.171875 82.30859375 C233.71236408 84.51029815 228.24055906 86.66337638 222.734375 88.74609375 C218.65987213 90.30259193 214.68271309 91.95635867 210.734375 93.80859375 C205.54769322 96.21803637 200.24477905 98.11056764 194.84765625 99.9921875 C190.4164649 101.57912851 186.05945635 103.31736334 181.69702148 105.08227539 C177.80699158 106.65565221 173.905459 108.18936992 169.984375 109.68359375 C164.32291124 111.85300508 158.6803487 114.06766541 153.046875 116.30859375 C152.17272949 116.65631836 151.29858398 117.00404297 150.39794922 117.36230469 C146.06753673 119.09907039 141.8115013 120.90136418 137.609375 122.93359375 C131.86411783 125.65020097 125.8075417 127.39267706 119.71850586 129.16650391 C115.54718156 130.41171355 112.62025457 131.6107855 109.171875 134.30859375 C106.67694481 135.27852647 104.21070064 136.1613232 101.671875 136.99609375 C94.92777716 139.29387468 88.28376275 141.77902762 81.671875 144.43359375 C80.86041016 144.75803467 80.04894531 145.08247559 79.21289062 145.41674805 C75.30940611 146.99164899 71.44634469 148.62372051 67.61328125 150.36328125 C62.67358692 152.58015652 57.61015668 154.30741636 52.47851562 156.01953125 C48.15154987 157.50033278 44.15566365 159.26487059 40.09399414 161.36279297 C37.20430686 162.78469676 34.21415926 163.82357996 31.171875 164.87109375 C29.95371094 165.29648438 28.73554688 165.721875 27.48046875 166.16015625 C26.38863281 166.53914062 25.29679688 166.918125 24.171875 167.30859375 C18.92027658 169.19573801 13.73474851 171.2538725 8.546875 173.30859375 C7.91273682 173.55794678 7.27859863 173.8072998 6.62524414 174.06420898 C3.66992224 175.24224225 0.81861688 176.48911904 -2.015625 177.9375 C-4.52975722 179.16313946 -6.47364146 179.79456209 -9.203125 180.24609375 C-13.01598744 181.02255415 -15.9822646 182.27137269 -19.39453125 184.09765625 C-22.65552012 185.72029919 -26.01185389 187.08010217 -29.390625 188.43359375 C-30.01598145 188.6872168 -30.64133789 188.94083984 -31.28564453 189.20214844 C-34.21612687 190.36756747 -37.10942451 191.3856123 -40.15234375 192.21875 C-44.97038973 193.64726735 -49.47714868 195.61280303 -54.078125 197.62109375 C-55.01108398 198.02336182 -55.94404297 198.42562988 -56.90527344 198.84008789 C-61.66751508 200.90081706 -66.3896238 203.0217196 -71.078125 205.24609375 C-74.93323435 207.03661847 -78.5743786 207.99856583 -82.734375 208.796875 C-85.57626202 209.49144067 -87.91995281 210.74192217 -90.4921875 212.109375 C-98.21587432 216.07454532 -106.26279312 219.21907432 -114.515625 221.87109375 C-119.84873992 223.59393128 -124.83666294 225.59477295 -129.89453125 227.9921875 C-135.43480226 230.47830112 -141.16684574 232.48452588 -146.86328125 234.58105469 C-149.81883458 235.67543204 -152.76138441 236.80268876 -155.703125 237.93359375 C-156.73953125 238.33191406 -157.7759375 238.73023438 -158.84375 239.140625 C-162.51886507 240.57892265 -166.16643822 242.08034333 -169.8046875 243.609375 C-171.828125 244.30859375 -171.828125 244.30859375 -174.828125 244.30859375 C-172.63925714 235.74408852 -169.20654015 227.76373397 -165.73733521 219.66195679 C-163.92973243 215.43948758 -162.1403184 211.20929706 -160.34765625 206.98046875 C-159.97436691 206.10126266 -159.60107758 205.22205658 -159.21647644 204.31620789 C-155.22104826 194.89829405 -151.3015549 185.44933958 -147.390625 175.99609375 C-146.67955874 174.27855038 -145.96845832 172.56102115 -145.25732422 170.84350586 C-143.82753997 167.38982303 -142.39825532 163.93593393 -140.96923828 160.48193359 C-137.78040131 152.77550189 -134.58475856 145.07189222 -131.38961792 137.36807251 C-129.6188405 133.09836226 -127.84850516 128.82846873 -126.078125 124.55859375 C-125.36979378 122.85025954 -124.66146045 121.14192621 -123.953125 119.43359375 C-123.4271875 118.16515625 -123.4271875 118.16515625 -122.890625 116.87109375 C-119.70312499 109.18359374 -119.70312499 109.18359374 -118.64073181 106.62135315 C-117.93204075 104.91215585 -117.22335138 103.20295785 -116.5146637 101.49375916 C-114.74931752 97.2361387 -112.98394238 92.97853026 -111.21850586 88.72094727 C-107.2146769 79.06508277 -103.21164748 69.40888743 -99.20944214 59.75234985 C-96.36474046 52.88900808 -93.51823527 46.02641564 -90.67092896 39.16415405 C-88.89004612 34.87134989 -87.11164336 30.57753684 -85.33677673 26.28224182 C-84.16890914 23.45699544 -82.99823933 20.6329102 -81.828125 17.80859375 C-81.424729 16.82947021 -81.02133301 15.85034668 -80.60571289 14.84155273 C-80.06611938 13.54133179 -80.06611938 13.54133179 -79.515625 12.21484375 C-79.21011719 11.47556641 -78.90460938 10.73628906 -78.58984375 9.97460938 C-77.828125 8.30859375 -77.828125 8.30859375 -76.828125 7.30859375 C-74.30835349 6.79662059 -71.80243056 6.34541984 -69.265625 5.93359375 C-68.47349609 5.8042041 -67.68136719 5.67481445 -66.86523438 5.54150391 C-60.20066081 4.47983375 -53.52079175 3.5492153 -46.828125 2.68359375 C-45.90572021 2.56064941 -44.98331543 2.43770508 -44.03295898 2.31103516 C-29.4365009 0.48506119 -14.69557641 0.13673806 0 0 Z " fill="#FFA28E" transform="translate(470.828125,23.69140625)"/>
<path d="M0 0 C0.66 0 1.32 0 2 0 C3.21152068 2.99872192 4.41855174 5.99923414 5.625 9 C5.95628906 9.81984375 6.28757812 10.6396875 6.62890625 11.484375 C8.72695549 16.70970518 10.74336727 21.96114951 12.70703125 27.23828125 C16.69383137 37.93906112 20.88920301 48.55843424 25.0625 59.1875 C38.57262015 93.62414453 38.57262015 93.62414453 41.5625 102.25 C43.18455916 106.83320143 44.94439599 111.26475954 46.97265625 115.6796875 C50.23144363 123.03983847 52.89369772 130.66110518 55.5625 138.25 C57.18654769 142.8388201 58.94862949 147.27545499 60.98046875 151.6953125 C62.66278289 155.49824486 64.10480781 159.39110977 65.58203125 163.27734375 C67.2005366 167.52647762 68.84870606 171.76353095 70.5 176 C71.10169508 177.54682343 71.70325948 179.09369771 72.3046875 180.640625 C73.32950474 183.27652365 74.35553355 185.91193351 75.3828125 188.546875 C77.53113689 194.08657941 79.59212336 199.6443084 81.5625 205.25 C83.18041792 209.82150017 84.93000434 214.24417606 86.9609375 218.64453125 C88.74803982 222.69574439 90.28185876 226.84515622 91.8515625 230.984375 C92.9403064 233.95684885 92.9403064 233.95684885 94.2109375 236.578125 C95.18070574 239.55464139 94.83020026 241.00118204 94 244 C92.77587891 246.10546875 92.77587891 246.10546875 91.2265625 248.1875 C90.65470215 248.96198486 90.0828418 249.73646973 89.49365234 250.53442383 C88.87699707 251.34806396 88.2603418 252.1617041 87.625 253 C86.99158691 253.84651123 86.35817383 254.69302246 85.70556641 255.56518555 C80.81083845 262.05350289 75.70911222 268.31605552 70.36083984 274.43310547 C68.93996857 276.06912122 67.54039911 277.72151969 66.14453125 279.37890625 C53.74871075 294.06429559 40.71998001 308.72219315 26.0703125 321.20703125 C23.6172589 323.33146824 21.25296853 325.54188637 18.875 327.75 C13.07120158 333.04075547 6.96653055 337.87247543 0.7421875 342.65625 C-0.91955498 343.93795272 -2.57056213 345.23218567 -4.21875 346.53125 C-21.81092452 360.33966323 -40.74978209 372.2825795 -60.1875 383.3125 C-61.18523437 383.88121826 -61.18523437 383.88121826 -62.203125 384.46142578 C-66.7515547 387 -66.7515547 387 -69 387 C-69 387.66 -69 388.32 -69 389 C-69.52207031 389.21914063 -70.04414062 389.43828125 -70.58203125 389.6640625 C-74.99107338 391.56357977 -79.1973502 393.63166328 -83.375 396 C-87.90530983 398.52105107 -92.41383427 400.32590193 -97.30859375 402.00390625 C-100.88787477 403.32860387 -104.21132713 405.03019345 -107.6015625 406.7734375 C-112.8060223 409.43500163 -117.97729188 411.77216851 -123.609375 413.3671875 C-129.09614748 414.98231069 -134.40318974 416.97726615 -139.75 419 C-147.08248386 421.72533711 -154.12509606 423.92530263 -161.8203125 425.35546875 C-167.33727331 426.47377162 -172.6480708 428.27475533 -178 430 C-182.07178735 431.29919775 -185.67542675 432.26209535 -190 432 C-188.43547317 426.97450496 -186.42373744 422.24604382 -184.28125 417.44921875 C-183.91157104 416.61538162 -183.54189209 415.78154449 -183.16101074 414.92243958 C-182.36178244 413.12045503 -181.56132391 411.31901573 -180.75976562 409.51806641 C-179.03856825 405.65070937 -177.32335526 401.78070835 -175.60791016 397.91079712 C-174.71854447 395.90446652 -173.8288929 393.89826262 -172.93896484 391.8921814 C-168.969082 382.9404688 -165.02944814 373.97566698 -161.09863281 365.00674438 C-154.19539466 349.25566424 -147.25861169 333.51967404 -140.30224609 317.79199219 C-134.14128944 303.86134274 -128.00691277 289.91925301 -121.89028931 275.96908569 C-115.61578408 261.65996999 -109.30254176 247.36824164 -102.97842407 233.08099365 C-97.31704377 220.28759456 -91.70307938 207.4751447 -86.18237305 194.62036133 C-83.39097163 188.13619343 -80.49468062 181.71241929 -77.52075195 175.31005859 C-75.14296771 170.13458922 -72.86839074 164.91498364 -70.59561157 159.69271851 C-69.07592029 156.20136092 -67.55108426 152.71224802 -66.02734375 149.22265625 C-65.70328049 148.48014114 -65.37921722 147.73762604 -65.04533386 146.97261047 C-61.1458826 138.03919974 -57.23049574 129.1127902 -53.3125 120.1875 C-52.7490387 118.90377502 -52.7490387 118.90377502 -52.17419434 117.59411621 C-45.91090092 103.32702255 -39.61993297 89.07225967 -33.31570435 74.82321167 C-28.87676515 64.79015299 -24.44806361 54.75280967 -20.046875 44.703125 C-19.64186768 43.77870605 -19.23686035 42.85428711 -18.81958008 41.90185547 C-16.89360228 37.50527292 -14.96953094 33.10787388 -13.04882812 28.70898438 C-8.83437427 19.07345282 -4.49974778 9.50576144 0 0 Z " fill="#FFC371" transform="translate(772,509)"/>
<path d="M0 0 C2.04199219 1.06298828 2.04199219 1.06298828 4.046875 2.5703125 C4.80081543 3.13000732 5.55475586 3.68970215 6.33154297 4.26635742 C7.5286792 5.1863855 7.5286792 5.1863855 8.75 6.125 C9.58547363 6.75446533 10.42094727 7.38393066 11.28173828 8.0324707 C19.06073667 13.94054285 26.62235476 20.10410676 34.09228516 26.39648438 C35.84916162 27.87321391 37.61567492 29.33719464 39.38671875 30.796875 C54.18602746 43.05832295 68.77482916 56.35229988 81.265625 70.984375 C83.25912581 73.30114621 85.31554388 75.55419984 87.375 77.8125 C104.57507477 96.90429197 119.82378871 117.95010513 133 140 C133.55026855 140.91861816 134.10053711 141.83723633 134.66748047 142.78369141 C142.12566963 155.30315645 149.17310899 167.96859931 155.6875 181 C156.26338867 182.15016602 156.83927734 183.30033203 157.43261719 184.48535156 C160.59349964 190.89173259 163.43530932 197.33495662 166 204 C166.45761719 205.1034375 166.91523437 206.206875 167.38671875 207.34375 C174.4498952 224.48202799 180.4206791 242.00732381 185.125 259.9375 C185.58604126 261.67918457 185.58604126 261.67918457 186.05639648 263.45605469 C186.46547241 265.06915527 186.46547241 265.06915527 186.8828125 266.71484375 C187.12402832 267.66480225 187.36524414 268.61476074 187.61376953 269.59350586 C188 272 188 272 187 275 C179.09455002 273.65327511 172.06446183 270.71785334 164.74032593 267.58328247 C160.76751006 265.88394053 156.78329991 264.21160084 152.80078125 262.53515625 C151.94353958 262.17354904 151.08629791 261.81194183 150.20307922 261.43937683 C139.40139348 256.8905924 128.5430051 252.48087287 117.6875 248.0625 C113.48552753 246.35062737 109.28379081 244.63817638 105.08203125 242.92578125 C104.05501099 242.50733948 103.02799072 242.08889771 101.96984863 241.65777588 C92.26558822 237.70306463 82.56892275 233.72997327 72.875 229.75 C72.08862152 229.42718048 71.30224304 229.10436096 70.49203491 228.77175903 C66.56586788 227.15995884 62.63982926 225.54784622 58.71386719 223.93554688 C51.45968423 220.9566285 44.20425114 217.98075689 36.94894409 215.00457764 C32.87608762 213.33385737 28.8032709 211.6630402 24.73046875 209.9921875 C23.92511185 209.66179474 23.11975494 209.33140198 22.28999329 208.99099731 C17.4650936 207.01154045 12.64038256 205.03162458 7.81582642 203.05133057 C-11.05116407 195.30718465 -29.922768 187.57444483 -48.79989624 179.8550415 C-62.4991803 174.25286148 -76.1943328 168.64071381 -89.88623047 163.02050781 C-102.92019603 157.67064651 -115.95905346 152.33281996 -129 147 C-146.91363771 139.67438632 -164.8214451 132.33468164 -182.72518921 124.98492432 C-187.74951698 122.9226921 -192.7748306 120.86288001 -197.80082703 118.80471802 C-201.28133422 117.37940069 -204.76156711 115.95341425 -208.24179077 114.52740479 C-209.87221125 113.85955707 -211.50275849 113.19201873 -213.13345337 112.52484131 C-224.78701322 107.75674272 -236.40309439 102.90427628 -248 98 C-248 97.34 -248 96.68 -248 96 C-241.48159621 93.1659114 -234.88880094 90.53431888 -228.27734375 87.92578125 C-227.40207031 87.57902344 -226.52679687 87.23226562 -225.625 86.875 C-224.83351563 86.56304687 -224.04203125 86.25109375 -223.2265625 85.9296875 C-220.99750644 85.03120474 -220.99750644 85.03120474 -218.90625 83.9375 C-216.68000699 82.84262639 -214.40027187 82.26956012 -212.015625 81.61328125 C-207.90406052 80.36228198 -203.96891782 78.63868198 -200 77 C-198.57307224 76.41758745 -197.14597579 75.83558809 -195.71875 75.25390625 C-194.18738559 74.62788396 -192.65613609 74.00158051 -191.125 73.375 C-190.38717285 73.07376221 -189.6493457 72.77252441 -188.88916016 72.4621582 C-186.11347701 71.32104402 -183.3726285 70.18631425 -180.6875 68.84375 C-178.55390343 67.77695172 -176.33143952 67.25027808 -174.0390625 66.62109375 C-167.99886848 64.78126454 -162.22897338 62.12982535 -156.5 59.5 C-149.11286707 56.10901384 -141.81696938 53.23341982 -134 51 C-130.63428652 49.74448867 -127.31831827 48.37520121 -124 47 C-122.95457031 46.57074219 -121.90914062 46.14148438 -120.83203125 45.69921875 C-115.37726569 43.51454173 -115.37726569 43.51454173 -110.0859375 40.9765625 C-107.15699007 39.60533243 -104.11346337 38.86503436 -101 38 C-94.22799307 35.75538891 -87.57062623 33.46879831 -81.26953125 30.10546875 C-77.37194164 28.20698706 -73.31444867 26.68018353 -69.27758789 25.10571289 C-66.10359697 23.86346648 -63.0436445 22.52864656 -60 21 C-58.34602209 20.53688619 -56.69173753 20.07480709 -55.03515625 19.62109375 C-48.82080321 17.72458294 -42.86092729 14.9435881 -36.875 12.4375 C-32.28255653 10.51713041 -27.67321306 8.71351146 -23 7 C-21.70766874 6.52262866 -20.41601622 6.0434164 -19.125 5.5625 C-18.47144531 5.32015625 -17.81789063 5.0778125 -17.14453125 4.828125 C-15.56876421 4.21963208 -14.00512186 3.5795002 -12.44921875 2.921875 C-11.14404297 2.37273437 -11.14404297 2.37273437 -9.8125 1.8125 C-9.01457031 1.46832031 -8.21664062 1.12414062 -7.39453125 0.76953125 C-4.70210662 -0.09573409 -2.81781948 -0.22594351 0 0 Z " fill="#FFC371" transform="translate(748,104)"/>
<path d="M0 0 C-0.67175682 4.64792281 -2.46722095 8.69383928 -4.3671875 12.9453125 C-4.71335114 13.73070404 -5.05951477 14.51609558 -5.41616821 15.32528687 C-6.56438958 17.92730694 -7.71970363 20.52611443 -8.875 23.125 C-9.68861696 24.96528887 -10.50175958 26.80578752 -11.31445312 28.64648438 C-13.01640121 32.49896953 -14.72128803 36.35013349 -16.42871094 40.20019531 C-18.88695087 45.74333075 -21.33907907 51.28914863 -23.7890625 56.8359375 C-24.57437451 58.61377262 -25.35969351 60.39160466 -26.14501953 62.16943359 C-26.53288635 63.04750671 -26.92075317 63.92557983 -27.32037354 64.83026123 C-28.50972933 67.52201949 -29.6998315 70.21344662 -30.89013672 72.90478516 C-36.28048378 85.09428092 -41.64725152 97.29395156 -47 109.5 C-53.14389345 123.51012235 -59.31221728 137.5092076 -65.5 151.5 C-73.22284361 168.96019538 -73.22284361 168.96019538 -80.91175842 186.43534851 C-82.81334872 190.76960567 -84.72405119 195.09919246 -86.65893555 199.41870117 C-90.14334205 207.2309073 -93.44271831 215.02073184 -96.27734375 223.09375 C-103.04113281 241.96131004 -103.04113281 241.96131004 -108.32373047 245.60107422 C-113.58767284 247.77344683 -118.77141509 248.07296762 -124.41357422 248.00048828 C-127.59064802 247.99988849 -130.61055233 248.41690649 -133.74707031 248.88183594 C-137.15438922 249.38608692 -140.56906763 249.71411736 -144 250 C-144.99491455 250.08757568 -145.9898291 250.17515137 -147.01489258 250.26538086 C-159.99565763 251.2473255 -172.99424005 251.18736821 -186.00561523 251.18530273 C-188.69774131 251.18522178 -191.38969611 251.19212972 -194.08178711 251.20581055 C-213.85339504 251.29886194 -233.64576069 251.14996553 -253.14453125 247.4921875 C-255.9566795 247.00746701 -258.76774832 246.66697265 -261.60327148 246.3515625 C-270.57846282 245.34576881 -279.24813287 243.50837875 -288.03515625 241.45068359 C-291.35993177 240.68806734 -294.70500844 240.03685322 -298.0546875 239.39453125 C-300.05409519 238.98902889 -302.02472424 238.50931998 -304 238 C-304 237.34 -304 236.68 -304 236 C-305.0209375 236.08894531 -306.041875 236.17789063 -307.09375 236.26953125 C-313.84732217 236.26507247 -320.14583265 233.75160781 -326.5 231.6875 C-327.79265212 231.27829532 -329.08561942 230.87008487 -330.37890625 230.46289062 C-336.65162839 228.46820391 -342.87711724 226.41641601 -349 224 C-349.86625 223.66282959 -350.7325 223.32565918 -351.625 222.97827148 C-365.93911523 217.38203609 -380.05103398 211.45237087 -394 205 C-394 204.34 -394 203.68 -394 203 C-395.2065625 202.62875 -395.2065625 202.62875 -396.4375 202.25 C-404.46804525 199.43226483 -411.88443837 195.56049151 -419.3125 191.4375 C-420.19228516 190.95603516 -421.07207031 190.47457031 -421.97851562 189.97851562 C-430.33080449 185.3679507 -430.33080449 185.3679507 -433 183 C-433 182.01 -433 181.02 -433 180 C-432.0821875 179.68546875 -431.164375 179.3709375 -430.21875 179.046875 C-424.21751082 176.95400588 -418.34460174 174.8697794 -412.7109375 171.8984375 C-408.16786961 169.51280824 -403.3887619 167.77097012 -398.5625 166.0625 C-394.55879969 164.62988343 -390.86025003 162.97605711 -387.1015625 161.00390625 C-383.74047149 159.39832932 -380.23248458 158.23045294 -376.7109375 157.02734375 C-373.92031875 156.02211232 -373.92031875 156.02211232 -371.0625 154.53125 C-367.96810453 152.98405226 -364.86905891 151.76036679 -361.625 150.5625 C-357.26730778 148.91604163 -353.14871518 147.13216391 -349.03125 144.96875 C-345.69434858 143.37730471 -342.20606595 142.22142722 -338.7109375 141.02734375 C-335.92168005 140.0226282 -335.92168005 140.0226282 -333.0703125 138.53515625 C-328.90243727 136.45121864 -324.58284748 134.90220049 -320.21875 133.28125 C-317.04088735 132.01627555 -314.0560061 130.53201356 -311 129 C-308.96866426 128.18218951 -306.92640994 127.39106537 -304.875 126.625 C-293.2125877 122.22597087 -293.2125877 122.22597087 -281.9375 116.9375 C-277.97862054 114.88810086 -273.85573326 113.47674137 -269.65625 112 C-267.33128851 111.12472038 -265.19632045 110.15216811 -263 109 C-259.02139672 106.91286385 -254.88844126 105.48824308 -250.65625 104 C-248.33128851 103.12472038 -246.19632045 102.15216811 -244 101 C-240.06148987 98.9423294 -235.98988762 97.48205865 -231.8046875 96.00390625 C-223.43063506 93.00650865 -215.1554924 89.63954639 -207.25 85.5625 C-201.98332137 82.8971444 -196.56892012 80.93190291 -191 79 C-185.64751811 77.04826627 -180.36678642 74.94571513 -175.1015625 72.76953125 C-173 72 -173 72 -171 72 C-171 71.34 -171 70.68 -171 70 C-164.70018779 67.86902904 -158.41739187 65.75019778 -152 64 C-152 63.34 -152 62.68 -152 62 C-151.33097656 61.79246094 -150.66195313 61.58492187 -149.97265625 61.37109375 C-142.6829642 59.0325214 -135.65475523 56.28564012 -128.61352539 53.28686523 C-123.20067548 51 -123.20067548 51 -121 51 C-121 50.34 -121 49.68 -121 49 C-120.02160156 48.68546875 -119.04320312 48.3709375 -118.03515625 48.046875 C-111.51529109 45.92658688 -105.15839874 43.76150283 -98.94140625 40.84765625 C-96.02951378 39.57626658 -93.07520057 38.78515759 -90 38 C-90 37.34 -90 36.68 -90 36 C-86.04 35.01 -82.08 34.02 -78 33 C-78 32.34 -78 31.68 -78 31 C-71.70018779 28.86902904 -65.41739187 26.75019778 -59 25 C-59 24.34 -59 23.68 -59 23 C-55.04 22.01 -51.08 21.02 -47 20 C-47 19.34 -47 18.68 -47 18 C-46.27554687 17.81824219 -45.55109375 17.63648438 -44.8046875 17.44921875 C-39.52504924 16.0765128 -34.82835853 14.59988536 -30 12 C-29.34 12 -28.68 12 -28 12 C-28 11.34 -28 10.68 -28 10 C-24.04 9.01 -20.08 8.02 -16 7 C-16 6.34 -16 5.68 -16 5 C-15.15695312 4.72285156 -14.31390625 4.44570313 -13.4453125 4.16015625 C-12.34960938 3.79792969 -11.25390625 3.43570313 -10.125 3.0625 C-9.03445313 2.70285156 -7.94390625 2.34320312 -6.8203125 1.97265625 C-1.10040161 0 -1.10040161 0 0 0 Z " fill="#FFA28F" transform="translate(675,700)"/>
<path d="M0 0 C2.88065189 1.44032595 3.15699919 3.26928994 4.40625 6.21875 C4.89351563 7.35763672 5.38078125 8.49652344 5.8828125 9.66992188 C6.14481445 10.2905249 6.40681641 10.91112793 6.67675781 11.55053711 C8.11488464 14.95606579 9.57520177 18.3521052 11.03125 21.75 C11.50208008 22.85148376 11.50208008 22.85148376 11.98242188 23.97521973 C15.54382571 32.29715776 19.19194146 40.58069687 22.83984375 48.86499023 C28.94704056 62.7359867 35.0163361 76.62221016 41.02734375 90.53515625 C45.64419659 101.20803051 50.31956621 111.8548789 55 122.5 C60.71387767 135.49557317 66.39695455 148.50318125 72.02734375 161.53515625 C76.64419659 172.20803051 81.31956621 182.8548789 86 193.5 C91.71387767 206.49557317 97.39695455 219.50318125 103.02734375 232.53515625 C107.64419694 243.20803132 112.31967649 253.85482978 117 264.5 C122.73797166 277.55172136 128.44906776 290.61402758 134.10864258 303.69995117 C138.45318642 313.74405043 142.81543123 323.78035083 147.1875 333.8125 C147.54103546 334.62380371 147.89457092 335.43510742 148.25881958 336.27099609 C153.59453641 348.51260437 158.95755753 360.74207122 164.33175659 372.96682739 C167.24722307 379.60055891 170.15807987 386.23631265 173.06726074 392.87280273 C173.93125228 394.84321454 174.7961307 396.81323482 175.66113281 398.78320312 C176.98842914 401.81123549 178.3086252 404.84220782 179.625 407.875 C179.98529297 408.69436035 180.34558594 409.5137207 180.71679688 410.35791016 C183 415.65282297 183 415.65282297 183 419 C181.35 418.67 179.7 418.34 178 418 C178 417.34 178 416.68 178 416 C177.15993408 415.89727783 176.31986816 415.79455566 175.4543457 415.6887207 C171.61887748 414.92401254 168.27357649 413.57587099 164.73046875 411.98046875 C164.05003006 411.68062576 163.36959137 411.38078278 162.66853333 411.07185364 C160.50528527 410.11680947 158.34639082 409.15234717 156.1875 408.1875 C154.74962698 407.55080406 153.31147811 406.9147307 151.87304688 406.27929688 C147.02236159 404.13391098 142.17793578 401.97467068 137.33666992 399.80810547 C131.90145458 397.37956683 126.42817753 395.05020626 120.9375 392.75 C120.07189453 392.38648438 119.20628906 392.02296875 118.31445312 391.6484375 C116.20998302 390.76479259 114.10516308 389.8819924 112 389 C112 388.34 112 387.68 112 387 C111.15993408 386.89727783 110.31986816 386.79455566 109.4543457 386.6887207 C105.61887748 385.92401254 102.27357649 384.57587099 98.73046875 382.98046875 C98.05003006 382.68062576 97.36959137 382.38078278 96.66853333 382.07185364 C94.50528527 381.11680947 92.34639082 380.15234717 90.1875 379.1875 C88.74962698 378.55080406 87.31147811 377.9147307 85.87304688 377.27929688 C82.57029983 375.81856861 79.27072791 374.35087987 75.97262573 372.87969971 C69.52116357 370.00264641 63.06260986 367.1424043 56.59375 364.3046875 C55.80832321 363.95994385 55.02289642 363.6152002 54.21366882 363.26000977 C52.52410707 362.51844577 50.83450534 361.77697284 49.14486694 361.0355835 C46.43931535 359.84837121 43.73392223 358.66079842 41.02856445 357.47314453 C30.974971 353.0598367 20.92022968 348.64915911 10.86393738 344.24200439 C6.6136147 342.37885339 2.36427727 340.51351001 -1.88305664 338.64355469 C-3.56526639 337.90299357 -5.24747667 337.16243367 -6.9296875 336.421875 C-7.75619308 336.0579364 -8.58269867 335.6939978 -9.43424988 335.31903076 C-14.5810384 333.0554403 -19.73620105 330.8121538 -24.89772034 328.58236694 C-28.27793409 327.11993615 -31.65366958 325.6473606 -35.02865601 324.1729126 C-36.62104036 323.48018213 -38.21544114 322.79206659 -39.81192017 322.10882568 C-42.00367151 321.17029764 -44.18789892 320.2160405 -46.37109375 319.2578125 C-47.01793121 318.98567932 -47.66476868 318.71354614 -48.33120728 318.4331665 C-51.99239328 316.80304217 -53.5232234 315.69803373 -55 312 C-55.42359924 309.98506165 -55.42359924 309.98506165 -55.67016602 307.83325195 C-55.81525352 306.6159716 -55.81525352 306.6159716 -55.96327209 305.37409973 C-56.05918137 304.50427963 -56.15509064 303.63445953 -56.25390625 302.73828125 C-56.35968491 301.83305222 -56.46546356 300.92782318 -56.57444763 299.99516296 C-56.91086557 297.10170728 -57.23680335 294.20718009 -57.5625 291.3125 C-57.78512141 289.38338427 -58.00842146 287.45434672 -58.23242188 285.52539062 C-58.74018662 281.13706953 -59.24520604 276.74850554 -59.73091125 272.35768127 C-59.90338215 270.84653896 -60.08739439 269.33664272 -60.28605652 267.82872009 C-61.11367437 261.31124682 -61.16160011 254.84121645 -61.16796875 248.27734375 C-61.17129715 247.05962784 -61.17462555 245.84191193 -61.17805481 244.58729553 C-61.18310236 242.01124445 -61.18546381 239.43518688 -61.18530273 236.85913086 C-61.18746404 233.00167377 -61.20557328 229.14451501 -61.22460938 225.28710938 C-61.27090227 205.25894995 -60.29963324 185.42845494 -57.1875 165.625 C-57.01573242 164.51036377 -56.84396484 163.39572754 -56.66699219 162.24731445 C-47.77428204 105.7213353 -30.24239548 48.99598586 0 0 Z " fill="#FF73B9" transform="translate(82,256)"/>
<path d="M0 0 C1.88968963 2.83453445 2.857008 5.38129804 3.90087891 8.59643555 C12.24081344 34.11955955 29.8505121 53.65915662 53 67 C55.97222132 68.49012717 58.90655488 69.77328901 62 71 C62 71.66 62 72.32 62 73 C62.66644531 73.10441406 63.33289063 73.20882812 64.01953125 73.31640625 C67.72545314 74.16638833 71.16208392 75.54332412 74.6875 76.9375 C79.92956717 78.95633195 84.98352382 80.71588236 90.55615234 81.59350586 C92.9117843 81.98532676 95.22593096 82.47507492 97.55859375 82.984375 C104.22369908 84.33018992 110.92519438 84.73632122 117.69726562 85.2109375 C123.06812178 85.62490382 127.83429707 86.37612804 133 88 C134.93274058 88.3216979 136.87054313 88.61465558 138.8125 88.875 C146.12490533 90.04498485 152.49075062 92.45996586 158.875 96.1875 C161.39774195 97.65069033 163.1664838 98.54663741 166 99 C166 99.66 166 100.32 166 101 C166.721875 101.27070313 167.44375 101.54140625 168.1875 101.8203125 C178.79163325 106.26815728 186.93715702 114.05115609 195 122 C195.86625 122.83015625 196.7325 123.6603125 197.625 124.515625 C210.1038529 137.23445584 219.36586417 154.39404043 223.6875 171.625 C223.89955078 172.43195313 224.11160156 173.23890625 224.33007812 174.0703125 C226.36481783 181.97819679 227.18116749 189.53755959 227.1875 197.6875 C227.19974609 198.52861328 227.21199219 199.36972656 227.22460938 200.23632812 C227.22654297 201.04908203 227.22847656 201.86183594 227.23046875 202.69921875 C227.23457764 203.42971436 227.23868652 204.16020996 227.24291992 204.9128418 C226.96521441 207.29887635 226.18125398 208.92512461 225 211 C224.84144531 210.34515625 224.68289063 209.6903125 224.51953125 209.015625 C219.99011908 191.29836636 211.69092224 177.06905027 199 164 C198.46246094 163.40058594 197.92492187 162.80117188 197.37109375 162.18359375 C173.9518113 136.88607311 138.10182324 128.99353761 105.3840332 125.22485352 C91.88754856 123.66580895 79.52615866 120.23353204 67 115 C67 114.34 67 113.68 67 113 C65.68 113 64.36 113 63 113 C63 112.34 63 111.68 63 111 C61.92298828 110.84724609 61.92298828 110.84724609 60.82421875 110.69140625 C42.79043207 106.27649582 26.09326103 85.64753949 16.76171875 70.4375 C5.93689973 52.15497148 -0.43418035 33.70844433 -0.125 12.375 C-0.11597656 11.18003906 -0.10695313 9.98507812 -0.09765625 8.75390625 C-0.07431077 5.83572166 -0.04156656 2.91797224 0 0 Z " fill="#4FC6DC" transform="translate(358,382)"/>
<path d="M0 0 C-2.10873277 2.10873277 -3.14717161 2.52994101 -5.921875 3.40234375 C-6.70046875 3.65306641 -7.4790625 3.90378906 -8.28125 4.16210938 C-9.0959375 4.41798828 -9.910625 4.67386719 -10.75 4.9375 C-16.08905205 6.62102367 -21.00445017 8.43326811 -26 11 C-26.66 11 -27.32 11 -28 11 C-28.33 11.99 -28.66 12.98 -29 14 C-29.94875 14.37125 -30.8975 14.7425 -31.875 15.125 C-46.84056598 21.04375868 -57.13260294 36.6601341 -65 50 C-65.556875 50.93199219 -66.11375 51.86398437 -66.6875 52.82421875 C-79.72908828 76.63190986 -80.73358723 104.20771441 -73.4375 129.875 C-67.54847042 149.28169635 -54.90530782 169.03741103 -37 179.4375 C-36.01 179.953125 -35.02 180.46875 -34 181 C-34 181.66 -34 182.32 -34 183 C-62.43361013 176.5721892 -87.32710461 164.98970802 -103.80078125 139.6328125 C-117.18657189 118.04741105 -123.21094527 93.1018414 -117.375 68 C-116.66731878 65.30310046 -115.86359639 62.65076113 -115 60 C-114.79632813 59.3615918 -114.59265625 58.72318359 -114.3828125 58.06542969 C-107.4196277 36.97170783 -92.35085071 18.0237263 -72.5 7.875 C-51.17137799 -2.56689956 -22.82327172 -10.13421394 0 0 Z " fill="#2E92C8" transform="translate(487,271)"/>
<path d="M0 0 C5.6797833 0.49822661 9.73864237 1.692387 15 4 C16.34957431 4.27370885 17.70445786 4.52198923 19.0625 4.75 C39.30054817 8.94905081 58.05056408 25.41232233 69.421875 41.9453125 C76.97251038 53.48443358 81.181996 65.57865892 84 79 C84.1757959 79.63832764 84.3515918 80.27665527 84.53271484 80.93432617 C89.20011013 101.56694453 81.84917164 126.4725497 71 144 C66.05834054 151.28708094 60.57233069 158.05415248 53.7109375 163.61328125 C51.75599363 165.14858394 51.75599363 165.14858394 49.25 167.75 C45.78681048 171.21318952 42.57120238 173.35505274 38 175.125 C36.7315625 175.62386719 36.7315625 175.62386719 35.4375 176.1328125 C33.3015372 176.89272234 31.20881938 177.49892523 29 178 C29 178.66 29 179.32 29 180 C8.11727211 185.87683326 -12.70513272 189.10501315 -34 183 C-34 182.34 -34 181.68 -34 181 C-32.43765625 180.5978125 -32.43765625 180.5978125 -30.84375 180.1875 C-22.98934111 178.07526592 -15.54690199 175.62442545 -8.25 172 C-7.59580078 171.6803125 -6.94160156 171.360625 -6.26757812 171.03125 C-2.11151323 168.88618425 0.80279934 166.37628603 4 163 C5.71477423 161.62765381 7.44445169 160.27375122 9.1875 158.9375 C28.51677116 143.19349688 40.67982352 118.10319724 43.68359375 93.5859375 C45.9941402 67.3997444 39.24844405 41.44783959 22.578125 20.8046875 C21.03207763 18.98046501 21.03207763 18.98046501 19.296875 17.3828125 C18 16 18 16 18 14 C17.41992188 13.73960937 16.83984375 13.47921875 16.2421875 13.2109375 C13.8525159 11.92034831 12.1209302 10.46061452 10.125 8.625 C7.6750453 6.42279353 5.26956865 4.41012482 2.5 2.625 C1.675 2.08875 0.85 1.5525 0 1 C0 0.67 0 0.34 0 0 Z " fill="#2F92C8" transform="translate(489,521)"/>
<path d="M0 0 C15.38154091 14.67596564 25.90080806 33.65025151 27.34765625 55.078125 C27.85030134 77.36934223 20.94514792 99.23066272 5.44921875 115.62109375 C-11.15528286 131.7489111 -30.27139196 140.61076706 -53.58544922 140.35107422 C-68.22027094 139.87555059 -84.60554589 137.01501853 -95 126 C-96.30812537 124.94705818 -97.63968061 123.92208601 -99 122.9375 C-100.02867187 122.17953125 -100.02867187 122.17953125 -101.078125 121.40625 C-101.71234375 120.9421875 -102.3465625 120.478125 -103 120 C-106.5867839 117.30991208 -109.39335816 114.66860703 -112 111 C-112 110.34 -112 109.68 -112 109 C-111.31035156 109.19335938 -110.62070312 109.38671875 -109.91015625 109.5859375 C-108.97042969 109.84632813 -108.03070313 110.10671875 -107.0625 110.375 C-105.68771484 110.75785156 -105.68771484 110.75785156 -104.28515625 111.1484375 C-103.20105469 111.42945313 -102.11695313 111.71046875 -101 112 C-100.03803711 112.26466064 -100.03803711 112.26466064 -99.05664062 112.53466797 C-92.50289265 114.19397677 -86.11424386 114.38482612 -79.375 114.375 C-77.65446411 114.37258301 -77.65446411 114.37258301 -75.89916992 114.37011719 C-64.03553968 114.19923668 -54.19745973 112.29204962 -44 106 C-40.5625 105.25 -40.5625 105.25 -38 105 C-38 104.34 -38 103.68 -38 103 C-36.41775101 101.91408387 -34.78079588 100.9075854 -33.125 99.9375 C-14.36871236 88.28404272 -2.53400289 70.19804495 3 49 C6.02117778 33.01735523 5.28055767 15.39376856 0 0 Z " fill="#2F92C8" transform="translate(480,550)"/>
<path d="M0 0 C4.78133466 4.08321109 9.21414375 8.52508479 13.5625 13.0625 C10.12776447 14.20741184 9.0753681 13.63584007 5.82861328 12.37133789 C-2.05884295 9.35809699 -9.3905674 8.5879219 -17.8125 8.625 C-18.80983154 8.62765869 -19.80716309 8.63031738 -20.8347168 8.63305664 C-27.24093826 8.76025502 -33.20082851 9.64482368 -39.4375 11.0625 C-40.89515463 11.33696273 -42.35340001 11.60832787 -43.8125 11.875 C-50.08627607 13.27790163 -57.83338056 15.45838056 -62.4375 20.0625 C-63.53964844 20.45888672 -63.53964844 20.45888672 -64.6640625 20.86328125 C-68.234868 22.40727743 -70.91266037 24.71762614 -73.8125 27.25 C-74.38758301 27.74757813 -74.96266602 28.24515625 -75.55517578 28.7578125 C-77.19122748 30.18328329 -78.81605882 31.62045456 -80.4375 33.0625 C-81.1490625 33.68769531 -81.860625 34.31289063 -82.59375 34.95703125 C-95.61432634 47.11943324 -103.95409586 67.01168534 -104.78515625 84.63671875 C-105.13956038 98.9635941 -103.32964358 111.55086534 -98.4375 125.0625 C-111.21699701 112.8681448 -121.24177432 97.29725011 -125.4375 80.0625 C-125.69333862 79.18537354 -125.69333862 79.18537354 -125.9543457 78.29052734 C-130.40802396 57.75274676 -125.56817235 35.603399 -114.73339844 18.00634766 C-108.87952813 9.2255422 -100.91971739 2.23766478 -92.4375 -3.9375 C-91.68726563 -4.50339844 -90.93703125 -5.06929688 -90.1640625 -5.65234375 C-85.44474293 -9.03866253 -81.03655411 -10.960889 -75.40625 -12.39453125 C-73.45096244 -12.75948396 -73.45096244 -12.75948396 -72.4375 -13.9375 C-47.42098639 -20.1127475 -20.49630959 -15.87117636 0 0 Z " fill="#2F92C8" transform="translate(562.4375,301.9375)"/>
<path d="M0 0 C2.31 0 4.62 0 7 0 C6.01 0.33 5.02 0.66 4 1 C4 1.66 4 2.32 4 3 C5.010625 3.144375 6.02125 3.28875 7.0625 3.4375 C9.41000655 3.77285808 11.75515551 4.12681273 14.09375 4.51953125 C28.27289451 6.26356602 42.13602317 5.15536265 56 2 C57.99761971 1.65268657 59.99695256 1.31450288 62 1 C61 3 61 3 58.77734375 3.81640625 C57.84019531 4.06261719 56.90304687 4.30882812 55.9375 4.5625 C55.01839844 4.81128906 54.09929687 5.06007813 53.15234375 5.31640625 C36.54728377 8.91725569 15.83285509 9.6664653 0 3 C0 2.01 0 1.02 0 0 Z " fill="#85E2EA" transform="translate(451,701)"/>
<path d="M0 0 C0.66 0.33 1.32 0.66 2 1 C-3.94 6.94 -9.88 12.88 -16 19 C-16 13.49581073 -10.69222469 9.76817235 -7 6 C-4.72454022 3.90179524 -2.40856363 1.94734932 0 0 Z " fill="#66C4DD" transform="translate(404,285)"/>
<path d="M0 0 C2.31 0 4.62 0 7 0 C6.01 0.33 5.02 0.66 4 1 C4 1.66 4 2.32 4 3 C5.3921875 3.185625 5.3921875 3.185625 6.8125 3.375 C11.90135357 4.09749156 16.94788354 5.05900905 22 6 C22 6.33 22 6.66 22 7 C14.17509977 7.62599202 7.39062767 5.32514129 0 3 C0 2.01 0 1.02 0 0 Z " fill="#94EAEE" transform="translate(451,701)"/>
<path d="M0 0 C10.55808656 3.07517084 10.55808656 3.07517084 15 5 C12.83032311 5.95465783 11.43671207 6.14401212 9.17578125 5.3984375 C7.4315257 4.64129615 5.71372869 3.82390802 4 3 C3.67 3.66 3.34 4.32 3 5 C1.5 3.625 1.5 3.625 0 2 C0 1.34 0 0.68 0 0 Z " fill="#98E9EE" transform="translate(364,656)"/>
</svg>
